<svg xmlns="http://www.w3.org/2000/svg" viewBox="0 0 180 180">
  <defs>
    <linearGradient id="bg" x1="0%" y1="0%" x2="100%" y2="100%">
      <stop offset="0%" style="stop-color:#6366f1;stop-opacity:1" />
      <stop offset="100%" style="stop-color:#8b5cf6;stop-opacity:1" />
    </linearGradient>
    <linearGradient id="bottle" x1="0%" y1="0%" x2="100%" y2="100%">
      <stop offset="0%" style="stop-color:#ffffff;stop-opacity:1" />
      <stop offset="100%" style="stop-color:#e0e7ff;stop-opacity:1" />
    </linearGradient>
  </defs>
  <rect width="180" height="180" rx="40" fill="url(#bg)"/>
  <path d="M70 56 L70 42 L81 35 L99 35 L110 42 L110 56 L120 70 L120 133 C120 140 113 148 105 148 L75 148 C67 148 60 140 60 133 L60 70 Z" fill="url(#bottle)" opacity="0.95"/>
  <rect x="76" y="30" width="28" height="9" rx="2" fill="#fff" opacity="0.9"/>
  <rect x="68" y="88" width="44" height="7" rx="2" fill="#6366f1" opacity="0.3"/>
  <rect x="68" y="100" width="36" height="7" rx="2" fill="#6366f1" opacity="0.5"/>
  <rect x="68" y="112" width="28" height="7" rx="2" fill="#6366f1" opacity="0.7"/>
  <rect x="68" y="124" width="20" height="7" rx="2" fill="#6366f1" opacity="0.9"/>
  <circle cx="133" cy="133" r="20" fill="#10b981"/>
  <path d="M124 133 L130 139 L142 125" stroke="#fff" stroke-width="4" stroke-linecap="round" stroke-linejoin="round" fill="none"/>
</svg>
