<svg xmlns="http://www.w3.org/2000/svg" viewBox="0 0 512 512">
  <defs>
    <linearGradient id="bg" x1="0%" y1="0%" x2="100%" y2="100%">
      <stop offset="0%" style="stop-color:#6366f1;stop-opacity:1" />
      <stop offset="100%" style="stop-color:#8b5cf6;stop-opacity:1" />
    </linearGradient>
    <linearGradient id="bottle" x1="0%" y1="0%" x2="100%" y2="100%">
      <stop offset="0%" style="stop-color:#ffffff;stop-opacity:1" />
      <stop offset="100%" style="stop-color:#e0e7ff;stop-opacity:1" />
    </linearGradient>
  </defs>
  <!-- Background -->
  <rect width="512" height="512" rx="108" fill="url(#bg)"/>
  <!-- Bottle body -->
  <path d="M200 160 L200 120 L230 100 L282 100 L312 120 L312 160 L340 200 L340 380 C340 400 325 420 300 420 L212 420 C187 420 172 400 172 380 L172 200 Z" fill="url(#bottle)" opacity="0.95"/>
  <!-- Bottle cap -->
  <rect x="215" y="85" width="82" height="25" rx="5" fill="#fff" opacity="0.9"/>
  <!-- Stock indicator bars -->
  <rect x="195" y="250" width="122" height="20" rx="4" fill="#6366f1" opacity="0.3"/>
  <rect x="195" y="285" width="100" height="20" rx="4" fill="#6366f1" opacity="0.5"/>
  <rect x="195" y="320" width="80" height="20" rx="4" fill="#6366f1" opacity="0.7"/>
  <rect x="195" y="355" width="60" height="20" rx="4" fill="#6366f1" opacity="0.9"/>
  <!-- Checkmark -->
  <circle cx="380" cy="380" r="55" fill="#10b981"/>
  <path d="M355 380 L370 395 L405 355" stroke="#fff" stroke-width="10" stroke-linecap="round" stroke-linejoin="round" fill="none"/>
</svg>
